# xmcd CD database file
#
# Track frame offsets:
#	150
#	23364
#	49784
#	55178
#	67340
#	85506
#	107490
#	138574
#	144424
#	164010
#	179140
#	202864
#	215812
#	219221
#
# Disc length: 2979 seconds
#
# Revision: 0
# Processed by: cddbd v1.5PL3 Copyright (c) Steve Scherf et al.
# Submitted via: CDex 1.51
#
DISCID=cd0ba10e
DTITLE=Misters de l'Ouest - TV Series
DYEAR=2001
DGENRE=Jazz
TTITLE0=Les Rues de San Francisco
TTITLE1=Chapeau Melon et Bottes de Cuir n°1
TTITLE2=Mystères de l'Ouest
TTITLE3=Mission Impossible n°1 (Self Destruct)
TTITLE4=Mission Impossible n°2 (The Plot)
TTITLE5=Look of Love
TTITLE6=James Bond (Dr No)
TTITLE7=Manix
TTITLE8=Star Trek
TTITLE9=Les Sept Mercenaires
TTITLE10=Hawaï Police d'Etat
TTITLE11=Amicalement Vôtre
TTITLE12=Chapeau Melon et Bottes de Cuir n°2
TTITLE13=Chapeau Melon et Bottes de Cuir n°3
EXTD=YEAR: 2001
EXTT0=
EXTT1=
EXTT2=
EXTT3=
EXTT4=
EXTT5=
EXTT6=
EXTT7=
EXTT8=
EXTT9=
EXTT10=
EXTT11=
EXTT12=
EXTT13=
PLAYORDER=
